<?xml version="1.0" standalone="no"?>
<!DOCTYPE svg PUBLIC "-//W3C//DTD SVG 20010904//EN"
 "http://www.w3.org/TR/2001/REC-SVG-20010904/DTD/svg10.dtd">
<svg version="1.0" xmlns="http://www.w3.org/2000/svg"
 width="2000.000000pt" height="2000.000000pt" viewBox="0 0 2000.000000 2000.000000"
 preserveAspectRatio="xMidYMid meet">
<metadata>
Created by potrace 1.15, written by Peter Selinger 2001-2017
</metadata>
<g transform="translate(0.000000,2000.000000) scale(0.100000,-0.100000)"
fill="#000000" stroke="none">
<path d="M6500 19155 c-341 -76 -592 -330 -656 -663 -11 -57 -14 -179 -14
-533 l0 -459 -920 0 c-964 0 -1018 -2 -1240 -46 -499 -98 -952 -348 -1315
-726 -235 -245 -422 -543 -540 -862 -50 -137 -109 -375 -132 -531 -17 -125
-18 -355 -18 -6175 0 -5668 1 -6052 17 -6157 24 -159 64 -330 104 -451 201
-601 598 -1085 1147 -1399 295 -168 663 -283 1007 -313 90 -8 1815 -10 6140
-8 5724 3 6020 4 6120 21 58 10 161 32 229 48 458 112 899 367 1218 703 396
419 633 947 683 1526 14 158 14 11911 0 12070 -54 617 -316 1174 -751 1596
-379 366 -808 581 -1359 681 -85 15 -202 17 -1072 20 l-978 4 0 459 c0 354 -3
475 -14 532 -80 411 -442 696 -860 675 -213 -11 -378 -78 -528 -216 -110 -102
-188 -225 -239 -376 -23 -69 -24 -76 -27 -572 l-3 -503 -2499 0 -2499 0 -3
503 c-3 496 -4 503 -27 572 -51 151 -129 274 -239 376 -105 97 -211 154 -358
195 -83 22 -291 28 -374 9z m-668 -3817 c4 -476 5 -496 26 -566 89 -293 306
-505 597 -583 108 -29 297 -32 405 -5 101 24 261 103 338 166 135 110 241 281
282 450 18 79 20 118 20 558 l0 472 2500 0 2500 0 0 -472 c0 -440 2 -479 20
-558 40 -169 143 -334 278 -446 80 -66 238 -145 342 -170 108 -27 297 -24 405
5 291 78 508 290 597 583 21 70 22 90 26 566 l3 493 897 -3 c1006 -4 938 1
1112 -80 243 -112 415 -333 466 -596 12 -61 14 -295 14 -1363 l0 -1289 -6660
0 -6660 0 0 1289 c0 1395 -1 1358 54 1505 85 225 278 411 511 491 121 42 154
43 1057 44 l867 1 3 -492z m10826 -8330 l-3 -3823 -23 -73 c-46 -149 -125
-275 -239 -383 -108 -102 -221 -162 -383 -206 -62 -17 -377 -18 -5925 -21
-3847 -2 -5899 1 -5972 7 -206 19 -369 90 -510 225 -114 107 -189 228 -235
378 l-23 73 -3 3823 -2 3822 6660 0 6660 0 -2 -3822z"/>
</g>
</svg>
